<svg width="512" height="512" viewBox="0 0 512 512" fill="none" xmlns="http://www.w3.org/2000/svg">
<g clip-path="url(#clip0_20_2)">
<path d="M400 0H112C50.1441 0 0 50.1441 0 112V400C0 461.856 50.1441 512 112 512H400C461.856 512 512 461.856 512 400V112C512 50.1441 461.856 0 400 0Z" fill="url(#paint0_linear_20_2)"/>
<path opacity="0.94" d="M142 156C142 128 164 106 192 106H320C348 106 370 128 370 156V356C370 384 348 406 320 406H192C164 406 142 384 142 356V156Z" fill="#FFF7E6"/>
<path d="M196 174H316V208H196V174ZM196 244H316V272H196V244ZM196 306H274V334H196V306Z" fill="#356FD7"/>
<path d="M334 372C359.405 372 380 351.405 380 326C380 300.595 359.405 280 334 280C308.595 280 288 300.595 288 326C288 351.405 308.595 372 334 372Z" fill="#F4C2C2"/>
<path d="M323.37 331.89C317.31 331.89 312.9 330.75 310.14 328.47C307.38 326.19 306 322.53 306 317.49V314.25C306 311.61 306.48 309.18 307.44 306.96C308.46 304.74 310.17 302.97 312.57 301.65C314.97 300.27 318.27 299.58 322.47 299.58H327.51V294H340.11V299.58H346.95C351.03 299.58 354.33 299.79 356.85 300.21C359.37 300.63 360.63 301.08 360.63 301.56L357.93 312.72C356.67 312.6 354.27 312.45 350.73 312.27C347.25 312.03 342.96 311.91 337.86 311.91L328.95 311.73H326.97C324.69 311.73 323.55 312.93 323.55 315.33V315.96C323.55 318.42 324.72 319.65 327.06 319.65H343.26C347.1 319.65 350.37 320.04 353.07 320.82C355.77 321.6 357.84 323.04 359.28 325.14C360.72 327.18 361.44 330.21 361.44 334.23V337.47C361.44 341.97 360.27 345.6 357.93 348.36C355.65 351.12 351.66 352.5 345.96 352.5H340.11V357.9H327.51V352.5H317.97C313.89 352.5 310.89 352.32 308.97 351.96C307.05 351.6 306.09 351.18 306.09 350.7L311.49 339.09C312.51 339.21 314.58 339.39 317.7 339.63C320.88 339.81 324.93 339.93 329.85 339.99H340.47C341.67 339.99 342.54 339.66 343.08 339C343.62 338.34 343.89 337.53 343.89 336.57V335.67C343.89 333.15 342.75 331.89 340.47 331.89H323.37Z" fill="#8B3A4A"/>
</g>
<defs>
<linearGradient id="paint0_linear_20_2" x1="64" y1="64" x2="448" y2="448" gradientUnits="userSpaceOnUse">
<stop stop-color="#356FD7"/>
<stop offset="1" stop-color="#90DED1"/>
</linearGradient>
<clipPath id="clip0_20_2">
<rect width="512" height="512" fill="white"/>
</clipPath>
</defs>
</svg>
